# xmcd
#
# Track frame offsets: 
#        150
#        10650
#        24924
#        47246
#        59580
#        80520
#        95314
#        134999
#        146413
#        158847
#        169553
#        181768
#        194767
#        213747
#        242783
#        263824
#        287400
#        310531
#        328806
#
# Disc length: 4729 seconds
#
# Revision: 1
# Processed by: cddbd v1.5.2PL0 Copyright (c) Steve Scherf et al.
# Submitted via: ExactAudioCopyFreeDBPlugin 1.0
#
DISCID=0f127713
DTITLE=Louis Armstrong - At His Very Best
DYEAR=2003
DGENRE=Jazz
TTITLE0=What A Wonderful World
TTITLE1=I'm In The Mood For Love
TTITLE2=Louis Armstrong - Ella Fitzgerald - Summertime
TTITLE3=Jeepers Creepers
TTITLE4=Have You Met Miss Jones
TTITLE5=Dream A Little Dream
TTITLE6=Let's Do It (Let's Fall In Love)
TTITLE7=Louis Armstrong - Bing Crosby - Gone Fishin'
TTITLE8=That Old Feeling
TTITLE9=C'est Si Bon (live)
TTITLE10=When The Saints Go Marching In
TTITLE11=Blueberry Hill
TTITLE12=Louis Armstrong - Ella Fitzgerald - Gee, Baby, Ain't I Good To
TTITLE12=You?
TTITLE13=You Go To My Head
TTITLE14=When Your Lover Has Gone
TTITLE15=Louis Armstrong - Ella Fitzgerald - Stompin' At The Savoy
TTITLE16=Louis Armstrong - Ella Fitzgerald - Tenderly
TTITLE17=When You're Smilling (The Whole World Smiles With You)
TTITLE18=Louis Armstrong - Velma Middleton - Baby, It's Cold Outside (l
TTITLE18=ive)
EXTD=YEAR: 2003
EXTT0=
EXTT1=
EXTT2=
EXTT3=
EXTT4=
EXTT5=
EXTT6=
EXTT7=
EXTT8=
EXTT9=
EXTT10=
EXTT11=
EXTT12=
EXTT13=
EXTT14=
EXTT15=
EXTT16=
EXTT17=
EXTT18=
PLAYORDER=
